<svg width="172" height="44" viewBox="0 0 172 44" fill="none" xmlns="http://www.w3.org/2000/svg">
<path d="M32.0405 21.3265C32.0405 20.6587 31.9692 19.9988 31.8243 19.3468C31.8176 19.2727 31.817 19.198 31.803 19.125C31.3672 16.8257 30.4691 14.7219 29.119 12.8124C28.3614 11.7419 27.501 10.7624 26.485 9.92731C26.4182 9.86329 26.3547 9.79533 26.2839 9.73692C23.4719 7.41855 20.2488 6.16558 16.6044 6.0145C15.5862 5.97238 14.5702 6.01731 13.5655 6.21163C13.4818 6.21837 13.397 6.21837 13.315 6.23353C11.1696 6.63846 9.15396 7.38092 7.33263 8.59964C3.43217 11.2089 1.01889 14.8196 0.227007 19.4479C-0.306533 22.5666 0.10345 25.592 1.42494 28.4877C4.42175 35.0542 11.6161 39.3888 19.4086 37.5916C25.656 36.1505 29.6756 32.181 31.5306 26.0452C31.9945 24.5109 32.1197 22.9266 32.0405 21.3265ZM30.3596 25.7083C28.6618 31.174 25.1444 34.9076 19.5563 36.2679C13.329 37.7831 8.17786 35.7495 4.23417 30.7376C2.19043 28.1407 1.15761 25.1405 1.21827 21.8224C1.29409 17.6973 2.90425 14.213 5.85725 11.3622C7.85774 9.43084 10.2368 8.15933 12.9623 7.5584C12.9977 7.55053 13.0303 7.53144 13.0645 7.5174C13.0802 7.532 13.0965 7.54323 13.1134 7.55166C13.1285 7.53256 13.1448 7.51627 13.1622 7.50392C13.8328 7.41294 14.5006 7.29612 15.1779 7.25961C19.0301 7.05518 22.4312 8.21212 25.4157 10.6394C26.3777 11.4218 27.2331 12.3159 27.952 13.3133C29.4335 15.3711 30.4495 17.6367 30.7606 20.1847C30.8729 21.1013 30.8875 22.0184 30.8606 22.9384H30.8589C30.8589 22.9384 30.8538 22.9412 30.851 22.9434C30.8538 22.9474 30.8566 22.9513 30.86 22.9547C30.7584 23.8847 30.6382 24.8125 30.3596 25.7083Z" fill="white"/>
<path d="M28.4877 21.8247C24.4042 17.7731 20.3184 13.7239 16.2388 9.6684C16.0815 9.51227 16.004 9.48531 15.8299 9.65942C12.8461 12.6411 9.8543 15.6148 6.86367 18.5903C5.78368 19.6647 4.702 20.7379 3.62088 21.8118C3.49227 21.8932 3.38668 21.978 3.57482 22.1083C3.7405 22.2661 3.90618 22.4234 4.07186 22.5812C4.14712 22.6632 4.219 22.7485 4.29763 22.8272C8.129 26.6383 11.9632 30.4478 15.7895 34.2651C15.9782 34.4533 16.0692 34.4909 16.2809 34.2786C18.4724 32.0804 20.679 29.8968 22.8788 27.7065C23.7859 26.8034 24.6856 25.8936 25.5887 24.9866C26.576 24.0178 27.5616 23.0473 28.5523 22.0825C28.6978 21.9404 28.5557 21.8926 28.4877 21.8247ZM16.6437 31.9821V29.4021C16.6426 28.4759 16.6426 27.5493 16.6415 26.6232V26.6024C16.6409 26.1233 16.6409 25.6448 16.6398 25.1663V25.1461C16.6392 24.6142 16.6387 24.0824 16.6375 23.5505V23.5449C16.6375 23.3309 16.637 23.1175 16.6364 22.9035V22.8805C16.6364 22.7396 16.6426 22.6547 16.8465 22.6553C18.8419 22.6615 20.8373 22.6626 22.8322 22.6632H22.8491C23.8403 22.6632 24.8316 22.6632 25.8228 22.6637C25.8577 22.6637 25.8925 22.6699 25.9902 22.6783C22.8895 25.8088 19.7995 28.8797 16.6437 31.9821ZM16.646 12.0581C16.7707 12.0957 16.8364 12.1873 16.9116 12.2608C17.9343 13.2628 18.9554 14.2669 19.9775 15.2694C20.0438 15.3346 20.1157 15.3936 20.1847 15.4553C20.2179 15.4879 20.251 15.5199 20.2842 15.5519C20.4038 15.7025 20.538 15.8389 20.6924 15.9541C20.711 16.0035 20.7447 16.0377 20.7947 16.0551C20.8199 16.1119 20.8604 16.1529 20.9177 16.1765C21.3759 16.6415 21.8297 17.1104 22.2925 17.571C23.2916 18.5639 24.2952 19.5529 25.2966 20.5431C25.3185 20.5992 25.3573 20.6391 25.4134 20.661C25.432 20.7138 25.4673 20.7497 25.5201 20.7683C25.542 20.825 25.5808 20.8643 25.6375 20.8862C25.6566 20.9384 25.692 20.9738 25.7442 20.9929C25.806 21.071 25.8678 21.1485 25.9284 21.2249C25.8689 21.2996 25.7981 21.2675 25.7386 21.2675C22.8098 21.2681 19.8803 21.2642 16.9515 21.2704C16.7201 21.2709 16.6359 21.2383 16.637 20.9733C16.6415 19.4895 16.642 18.0051 16.6409 16.5213V16.5056C16.6449 16.3017 16.6493 16.1001 16.6595 15.8962C16.6684 15.7058 16.6538 15.5132 16.6404 15.32V15.3048C16.6392 14.2742 16.6376 13.2442 16.637 12.2137C16.637 12.1687 16.642 12.1232 16.646 12.0581ZM15.3059 12.162C15.3408 12.2266 15.3531 12.3007 15.3498 12.3895C15.3481 12.4327 15.3453 12.4911 15.3593 12.536V13.16C15.3172 13.2285 15.3492 13.3268 15.3492 13.4009C15.343 15.9462 15.3441 18.4915 15.3441 21.0367C15.3441 21.0783 15.3464 21.1193 15.3514 21.1586C15.334 21.2305 15.2835 21.2732 15.138 21.2726C12.2109 21.2636 9.28369 21.2664 6.35597 21.2664H6.14311C9.20057 18.196 12.2142 15.1852 15.3059 12.162ZM15.3604 31.78C15.3604 31.8047 15.352 31.8288 15.3391 31.9035C12.2255 28.8545 9.17699 25.7914 6.09032 22.6609H7.71677C10.1767 22.6609 12.6371 22.662 15.0976 22.6592C15.2627 22.6592 15.3672 22.6525 15.3666 22.8833C15.3576 25.8487 15.361 28.814 15.3604 31.78Z" fill="white"/>
<path d="M11.5802 31.5401C10.9725 31.5424 10.3643 31.5463 9.75658 31.5328C7.90435 31.4907 6.57444 30.1468 6.55141 28.2973C6.54411 27.6897 6.54917 27.082 6.54692 26.4738C6.54692 26.3828 6.56489 26.2862 6.48739 26.2104C6.12907 25.861 5.77244 25.5111 5.37313 25.1203C5.42255 26.3036 5.34505 27.4257 5.42031 28.5473C5.577 30.8729 7.32645 32.5937 9.6538 32.6662C10.7096 32.6988 11.7672 32.6757 12.8241 32.6769C12.8657 32.6769 12.9191 32.6926 12.946 32.6241C12.6102 32.3068 12.2693 31.9894 11.9345 31.6654C11.8318 31.5654 11.7183 31.5396 11.5802 31.5401Z" fill="white"/>
<path d="M20.5155 12.4641C21.1052 12.4574 21.6944 12.4546 22.2835 12.4664C23.9673 12.499 25.3612 13.7615 25.5443 15.4368C25.6173 16.1068 25.5578 16.783 25.5679 17.4558C25.569 17.5479 25.537 17.6496 25.6004 17.7288C25.9329 18.1388 26.3204 18.4937 26.7186 18.852C26.704 17.6159 26.8304 16.391 26.6456 15.1762C26.3474 13.2117 24.8215 11.6453 22.9434 11.3976C21.6899 11.232 20.4268 11.3729 19.1682 11.3201C19.4911 11.6622 19.7978 11.9778 20.0932 12.303C20.2123 12.4338 20.3465 12.4664 20.5155 12.4641Z" fill="white"/>
<path d="M6.40034 17.8259C6.51322 17.7097 6.5486 17.5833 6.5458 17.4238C6.53625 16.8908 6.53569 16.3579 6.53962 15.8249C6.55478 13.9131 7.94928 12.5012 9.86272 12.4658C10.4423 12.4557 11.0219 12.4675 11.6015 12.467C11.6846 12.467 11.8003 12.4872 11.8458 12.4428C12.2109 12.0806 12.563 11.706 12.9112 11.342C11.8087 11.342 10.695 11.2949 9.58641 11.3521C7.39159 11.4661 5.65844 13.1577 5.43042 15.3458C5.31023 16.5022 5.40908 17.6625 5.42536 18.8554C5.74998 18.5117 6.07123 18.1652 6.40034 17.8259Z" fill="white"/>
<path d="M26.7119 27.023C26.7214 26.403 26.7141 25.783 26.7141 25.0927C26.3581 25.4595 26.0233 25.7498 25.7425 26.0947C25.5802 26.1924 25.5415 26.3395 25.5409 26.5226C25.5398 27.2803 25.6128 28.0435 25.51 28.7944C25.2977 30.3461 24.0375 31.4649 22.4554 31.53C21.7921 31.5576 21.1271 31.5357 20.4627 31.5368C20.3617 31.5373 20.26 31.5194 20.1752 31.6075C19.8354 31.9597 19.4911 32.3079 19.1165 32.6903C20.3869 32.6589 21.6191 32.7386 22.8496 32.6364C23.0164 32.6229 23.1832 32.5881 23.3467 32.5511C25.1826 32.1327 26.6344 30.4152 26.6563 28.6388C26.667 28.613 26.6782 28.5883 26.6782 28.5591V28.5119C26.754 28.0177 26.7046 27.5189 26.7119 27.023Z" fill="white"/>
<path d="M138.915 29.8749V13.4847H142.661V16.2164H142.832C143.13 15.2702 143.643 14.5411 144.368 14.0289C145.101 13.5096 145.937 13.2499 146.876 13.2499C147.089 13.2499 147.328 13.2606 147.591 13.2819C147.861 13.2961 148.085 13.321 148.263 13.3566V16.91C148.099 16.8531 147.84 16.8033 147.484 16.7606C147.135 16.7108 146.798 16.6859 146.47 16.6859C145.766 16.6859 145.133 16.8388 144.571 17.1447C144.016 17.4435 143.579 17.8597 143.258 18.3932C142.938 18.9267 142.778 19.5421 142.778 20.2392V29.8749H138.915Z" fill="white"/>
<path d="M128.96 30.195C127.317 30.195 125.898 29.8536 124.703 29.1706C123.515 28.4806 122.601 27.506 121.96 26.2469C121.32 24.9806 121 23.4903 121 21.7758C121 20.0898 121.32 18.6102 121.96 17.3368C122.608 16.0563 123.511 15.0604 124.671 14.349C125.83 13.6305 127.193 13.2713 128.758 13.2713C129.768 13.2713 130.721 13.4349 131.617 13.7621C132.521 14.0822 133.318 14.5802 134.008 15.256C134.705 15.9318 135.253 16.7926 135.651 17.8383C136.049 18.8769 136.248 20.1147 136.248 21.5517V22.7362H122.814V20.1325H132.546C132.539 19.3927 132.379 18.7347 132.066 18.1584C131.753 17.5751 131.315 17.1163 130.753 16.7819C130.198 16.4476 129.551 16.2804 128.811 16.2804C128.021 16.2804 127.328 16.4725 126.73 16.8566C126.133 17.2336 125.667 17.7316 125.332 18.3505C125.005 18.9623 124.838 19.6346 124.831 20.3673V22.6402C124.831 23.5934 125.005 24.4115 125.354 25.0944C125.702 25.7702 126.19 26.2895 126.816 26.6523C127.442 27.008 128.174 27.1859 129.014 27.1859C129.576 27.1859 130.084 27.1076 130.54 26.9511C130.995 26.7875 131.39 26.5492 131.724 26.2362C132.058 25.9232 132.311 25.5355 132.482 25.0731L136.088 25.4786C135.861 26.4318 135.427 27.2641 134.787 27.9755C134.153 28.6798 133.342 29.2275 132.354 29.6188C131.365 30.003 130.234 30.195 128.96 30.195Z" fill="white"/>
<path d="M107.703 20.2499V29.8536H103.84V13.4633H107.532V16.2484H107.724C108.101 15.3307 108.702 14.6015 109.528 14.0609C110.36 13.5202 111.388 13.2499 112.612 13.2499C113.743 13.2499 114.728 13.4918 115.567 13.9755C116.414 14.4593 117.068 15.16 117.531 16.0776C118 16.9953 118.231 18.1086 118.224 19.4176V29.8536H114.361V20.0151C114.361 18.9196 114.077 18.0624 113.508 17.4435C112.946 16.8246 112.167 16.5151 111.171 16.5151C110.495 16.5151 109.894 16.6645 109.368 16.9633C108.848 17.255 108.439 17.6783 108.14 18.2331C107.849 18.788 107.703 19.4603 107.703 20.2499Z" fill="white"/>
<path d="M89.993 20.2499V29.8536H86.1302V13.4633H89.8222V16.2484H90.0143C90.3913 15.3307 90.9925 14.6015 91.8177 14.0609C92.65 13.5202 93.6779 13.2499 94.9015 13.2499C96.0326 13.2499 97.0179 13.4918 97.8573 13.9755C98.7038 14.4593 99.3583 15.16 99.8207 16.0776C100.29 16.9953 100.521 18.1086 100.514 19.4176V29.8536H96.6515V20.0151C96.6515 18.9196 96.3669 18.0624 95.7978 17.4435C95.2358 16.8246 94.4569 16.5151 93.461 16.5151C92.7851 16.5151 92.184 16.6645 91.6576 16.9633C91.1383 17.255 90.7292 17.6783 90.4305 18.2331C90.1388 18.788 89.993 19.4603 89.993 20.2499Z" fill="white"/>
<path d="M74.193 30.1844C73.1544 30.1844 72.2189 29.9994 71.3866 29.6295C70.5614 29.2524 69.9069 28.6976 69.4232 27.9648C68.9466 27.2321 68.7083 26.3287 68.7083 25.2545C68.7083 24.3297 68.879 23.5649 69.2205 22.9603C69.5619 22.3556 70.0279 21.8719 70.6183 21.5091C71.2088 21.1462 71.8739 20.8724 72.6137 20.6874C73.3607 20.4953 74.1326 20.3566 74.9293 20.2712C75.8897 20.1717 76.6686 20.0827 77.2662 20.0045C77.8638 19.9191 78.2977 19.7911 78.568 19.6203C78.8455 19.4425 78.9842 19.1686 78.9842 18.7987V18.7347C78.9842 17.9308 78.7459 17.3083 78.2692 16.8673C77.7926 16.4262 77.1061 16.2057 76.2098 16.2057C75.2636 16.2057 74.5131 16.412 73.9583 16.8246C73.4105 17.2372 73.0406 17.7245 72.8485 18.2865L69.2418 17.7743C69.5264 16.7784 69.9959 15.946 70.6503 15.2773C71.3048 14.6015 72.1051 14.0964 73.0512 13.7621C73.9974 13.4206 75.0431 13.2499 76.1884 13.2499C76.9781 13.2499 77.7642 13.3424 78.5467 13.5273C79.3292 13.7123 80.0441 14.0182 80.6915 14.445C81.3388 14.8647 81.8582 15.4374 82.2494 16.163C82.6478 16.8886 82.847 17.7956 82.847 18.8841V29.8536H79.1336V27.602H79.0055C78.7708 28.0573 78.44 28.4842 78.0131 28.8825C77.5934 29.2738 77.0634 29.5903 76.4232 29.8322C75.7901 30.067 75.0467 30.1844 74.193 30.1844ZM75.1961 27.3459C75.9715 27.3459 76.6437 27.193 77.2128 26.8871C77.7819 26.5741 78.2194 26.1615 78.5253 25.6493C78.8383 25.1371 78.9948 24.5787 78.9948 23.974V22.0426C78.8739 22.1422 78.6676 22.2347 78.3759 22.32C78.0914 22.4054 77.7713 22.4801 77.4156 22.5441C77.0599 22.6081 76.7078 22.665 76.3592 22.7148C76.0106 22.7646 75.7083 22.8073 75.4522 22.8429C74.8759 22.9211 74.3602 23.0492 73.9049 23.227C73.4496 23.4049 73.0904 23.6539 72.8272 23.974C72.564 24.287 72.4323 24.6925 72.4323 25.1905C72.4323 25.9018 72.692 26.4389 73.2113 26.8017C73.7306 27.1645 74.3922 27.3459 75.1961 27.3459Z" fill="white"/>
<path d="M66.1053 7.99991V29.8536H62.2425V7.99991H66.1053Z" fill="white"/>
<path d="M44.063 35.9999V13.4633H47.8618V16.1737H48.0859C48.2851 15.7753 48.5661 15.352 48.9289 14.9039C49.2917 14.4486 49.7825 14.0609 50.4015 13.7408C51.0204 13.4135 51.81 13.2499 52.7704 13.2499C54.0366 13.2499 55.1784 13.5736 56.1957 14.2209C57.22 14.8612 58.031 15.8109 58.6286 17.07C59.2333 18.3221 59.5356 19.8586 59.5356 21.6798C59.5356 23.4796 59.2404 25.009 58.6499 26.2682C58.0595 27.5273 57.2556 28.4877 56.2383 29.1493C55.2211 29.8109 54.0686 30.1417 52.781 30.1417C51.842 30.1417 51.063 29.9852 50.4441 29.6722C49.8252 29.3591 49.3273 28.9821 48.9502 28.5411C48.5803 28.0929 48.2922 27.6696 48.0859 27.2712H47.9258V35.9999H44.063ZM47.8511 21.6584C47.8511 22.7184 48.0005 23.6468 48.2993 24.4435C48.6052 25.2402 49.0427 25.8627 49.6118 26.3109C50.188 26.7519 50.8852 26.9725 51.7033 26.9725C52.5569 26.9725 53.2719 26.7448 53.8481 26.2895C54.4243 25.8271 54.8583 25.1976 55.1499 24.4008C55.4487 23.597 55.5981 22.6828 55.5981 21.6584C55.5981 20.6412 55.4523 19.7377 55.1606 18.9481C54.8689 18.1584 54.435 17.5395 53.8588 17.0914C53.2825 16.6432 52.564 16.4191 51.7033 16.4191C50.8781 16.4191 50.1774 16.6361 49.6011 17.07C49.0249 17.504 48.5874 18.1122 48.2886 18.8947C47.997 19.6772 47.8511 20.5985 47.8511 21.6584Z" fill="white"/>
</svg>
